# xmcd
#
# Track frame offsets: 
#        150
#        16841
#        33895
#        50697
#        67063
#        81777
#        101011
#        115333
#        141534
#        157446
#        178735
#        199016
#        215020
#        228087
#        244938
#        267435
#        283536
#        300683
#
# Disc length: 4255 seconds
#
# Revision: 0
# Processed by: cddbd v1.5.1PL0 Copyright (c) Steve Scherf et al.
# Submitted via: ExactAudioCopy v0.95a5
#
DISCID=10109d12
DTITLE=Jennifer Lopez - Records Disc 1
DYEAR=2002
DGENRE=Blues
TTITLE0=Still
TTITLE1=Loving You
TTITLE2=I'm Glad
TTITLE3=The One
TTITLE4=Dear Ben
TTITLE5=All I Have Cbeatring
TTITLE6=Jenny from the Block
TTITLE7=Again
TTITLE8=You Belong to Me
TTITLE9=I've Been Thinkin'
TTITLE10=Baby I Love You
TTITLE11=Bonns Track the One
TTITLE12=Bowa Track I'm Gonna Be Alright
TTITLE13=Love Don't Cost a Thing
TTITLE14=I'm Real
TTITLE15=Play
TTITLE16=Walking on Sunshine
TTITLE17=Ain't It Funny
EXTD=
EXTT0=
EXTT1=
EXTT2=
EXTT3=
EXTT4=
EXTT5=
EXTT6=
EXTT7=
EXTT8=
EXTT9=
EXTT10=
EXTT11=
EXTT12=
EXTT13=
EXTT14=
EXTT15=
EXTT16=
EXTT17=
PLAYORDER=
